<svg width="78" height="78" viewBox="0 0 78 78" fill="none" xmlns="http://www.w3.org/2000/svg">
<g clip-path="url(#clip0_2141_12141)">
<path d="M78 38.9995L69.17 29.196L70.5526 16.0714L57.6408 13.3381L51.0545 1.89648L39.0001 7.28399L37.373 38.9995L39.0001 70.715L51.0547 76.1025L57.6408 64.661L70.5526 61.9275L69.17 48.803L78 38.9995Z" fill="#E1EBE6"/>
<path d="M26.9453 1.89648L20.3592 13.3381L7.44743 16.0716L8.82996 29.196L0 38.9995L8.82996 48.803L7.44743 61.9275L20.3592 64.661L26.9455 76.1025L39.0001 70.715V7.28399L26.9453 1.89648Z" fill="white"/>
<path d="M55.3498 30.4592L51.936 27.4121L39.0001 41.9049L37.373 45.5066L39.0001 48.7767L55.3498 30.4592Z" fill="#2A9C0E"/>
<path d="M25.4054 35.5527L22.1699 38.7884L35.7733 52.3919L39.0001 48.7768V41.905L35.5845 45.7317L25.4054 35.5527Z" fill="#3DC51B"/>
</g>
<defs>
<clipPath id="clip0_2141_12141">
<rect width="78" height="78" fill="white"/>
</clipPath>
</defs>
</svg>
