<svg width="16" height="16" viewBox="0 0 16 16" fill="none" xmlns="http://www.w3.org/2000/svg">
<path d="M5.53333 14.3833L11.15 8.78333C11.2167 8.71667 11.264 8.64444 11.292 8.56667C11.32 8.48889 11.3338 8.40556 11.3333 8.31667C11.3333 8.22778 11.3193 8.14444 11.2913 8.06667C11.2633 7.98889 11.2162 7.91667 11.15 7.85L5.53333 2.23333C5.37778 2.07778 5.18333 2 4.95 2C4.71667 2 4.51667 2.08333 4.35 2.25C4.18333 2.41667 4.1 2.61111 4.1 2.83333C4.1 3.05556 4.18333 3.25 4.35 3.41667L9.25 8.31667L4.35 13.2167C4.19444 13.3722 4.11667 13.564 4.11667 13.792C4.11667 14.02 4.2 14.2171 4.36667 14.3833C4.53333 14.55 4.72778 14.6333 4.95 14.6333C5.17222 14.6333 5.36667 14.55 5.53333 14.3833Z" fill="white"/>
</svg>
