<svg width="40" height="40" viewBox="0 0 40 40" fill="none" xmlns="http://www.w3.org/2000/svg">
<path d="M27.4463 13.5266L27.1356 13.9293H27.6442H32.6923C33.2359 13.9293 33.7586 14.1509 34.145 14.5476C34.5317 14.9445 34.75 15.4842 34.75 16.0482V20.7862C34.75 21.3502 34.5317 21.8899 34.145 22.2868C33.7586 22.6835 33.2359 22.9051 32.6923 22.9051H32.4423V23.1551V32.631C32.4423 33.1951 32.224 33.7348 31.8373 34.1317C31.4509 34.5284 30.9282 34.75 30.3846 34.75H9.61538C9.0718 34.75 8.5491 34.5284 8.16268 34.1317C7.77603 33.7348 7.55769 33.1951 7.55769 32.631V23.1551V22.9051H7.30769C6.7641 22.9051 6.24141 22.6835 5.85499 22.2868C5.46834 21.8899 5.25 21.3502 5.25 20.7862V16.0482C5.25 15.4842 5.46834 14.9445 5.85498 14.5476C6.24141 14.1509 6.7641 13.9293 7.30769 13.9293H12.3558H12.8644L12.5537 13.5266C11.8653 12.6342 11.5323 11.5054 11.6235 10.369C11.7147 9.23257 12.223 8.17556 13.0438 7.41143C13.8643 6.64748 14.9356 6.23317 16.0408 6.25052C17.1449 6.26786 18.2026 6.71484 18.9998 7.50298C19.3189 7.83506 19.5803 8.22124 19.7723 8.64479L20 9.147L20.2277 8.64479C20.4197 8.22124 20.6811 7.83506 21.0002 7.50298C21.7974 6.71484 22.8551 6.26786 23.9592 6.25052C25.0644 6.23317 26.1357 6.64748 26.9562 7.41143C27.777 8.17556 28.2853 9.23257 28.3765 10.369C28.4677 11.5054 28.1347 12.6342 27.4463 13.5266ZM20.9479 13.6148L20.9242 13.9089L21.2182 13.884C22.0997 13.8092 23.0662 13.6705 23.9059 13.455C24.3258 13.3473 24.7189 13.2191 25.056 13.0675C25.3876 12.9183 25.6794 12.7403 25.8871 12.5248C26.1412 12.2872 26.3455 11.9997 26.4883 11.6798C26.6321 11.3577 26.7105 11.0092 26.719 10.6555C26.7274 10.3018 26.6658 9.94979 26.5377 9.6209C26.4096 9.29199 26.2176 8.9928 25.9729 8.74164C25.7282 8.49046 25.436 8.29255 25.1138 8.16029C24.7915 8.02801 24.4462 7.96424 24.0989 7.97302C23.7516 7.9818 23.4098 8.06294 23.0944 8.21128C22.7812 8.3586 22.5006 8.56905 22.2693 8.82967C22.0597 9.04261 21.8868 9.34131 21.742 9.68068C21.5947 10.0257 21.4701 10.4284 21.3653 10.8588C21.1557 11.7195 21.0207 12.7106 20.9479 13.6148ZM14.1107 8.82478L14.1107 8.82476L14.1081 8.82743C13.6347 9.32064 13.3704 9.98391 13.3704 10.6736C13.3704 11.3632 13.6346 12.0264 14.1079 12.5196C14.3159 12.7374 14.6097 12.9171 14.944 13.0675C15.2811 13.2191 15.6742 13.3473 16.0941 13.455C16.9338 13.6705 17.9003 13.8092 18.7818 13.884L19.0758 13.9089L19.0521 13.6148C18.9793 12.7106 18.8443 11.7195 18.6347 10.8588C18.5299 10.4284 18.4053 10.0257 18.258 9.68068C18.1121 9.33871 17.9376 9.03803 17.7259 8.82478C17.2451 8.33854 16.596 8.06476 15.9183 8.06476C15.2406 8.06476 14.5914 8.33854 14.1107 8.82478ZM7.30769 15.7982H7.05769V16.0482V20.7862V21.0362H7.30769H18.8462H19.0962V20.7862V16.0482V15.7982H18.8462H7.30769ZM9.61538 22.9051H9.36538V23.1551V32.631V32.881H9.61538H18.8462H19.0962V32.631V23.1551V22.9051H18.8462H9.61538ZM30.3846 32.881H30.6346V32.631V23.1551V22.9051H30.3846H21.1538H20.9038V23.1551V32.631V32.881H21.1538H30.3846ZM32.6923 21.0362H32.9423V20.7862V16.0482V15.7982H32.6923H21.1538H20.9038V16.0482V20.7862V21.0362H21.1538H32.6923Z" fill="#585858" stroke="white" stroke-width="0.5"/>
</svg>
